<?xml version="1.0" standalone="no"?>
<!DOCTYPE svg PUBLIC "-//W3C//DTD SVG 20010904//EN"
 "http://www.w3.org/TR/2001/REC-SVG-20010904/DTD/svg10.dtd">
<svg version="1.0" xmlns="http://www.w3.org/2000/svg"
 width="256.000000pt" height="256.000000pt" viewBox="0 0 256.000000 256.000000"
 preserveAspectRatio="xMidYMid meet">
<metadata>
Created by potrace 1.14, written by Peter Selinger 2001-2017
</metadata>
<g transform="translate(0.000000,256.000000) scale(0.100000,-0.100000)"
fill="#000000" stroke="none">
<path d="M690 2551 c-74 -23 -133 -73 -163 -140 -21 -46 -21 -55 -22 -1121 0
-1194 -4 -1134 66 -1207 19 -19 57 -46 84 -59 l50 -24 570 0 c412 0 581 4 609
12 21 7 60 31 86 55 89 80 83 20 84 932 1 785 1 805 -18 823 -11 10 -22 18
-26 18 -3 0 -6 24 -5 54 0 46 5 58 28 80 21 20 25 29 18 48 -4 13 -17 28 -27
33 -15 8 -19 21 -19 65 0 46 5 59 27 81 24 24 26 31 23 98 -5 86 -29 144 -79
191 -73 70 -66 69 -696 69 -311 -1 -576 -4 -590 -8z"/>
</g>
</svg>
